<svg width="21" height="21" viewBox="0 0 21 21" fill="none" xmlns="http://www.w3.org/2000/svg">
<g clip-path="url(#clip0_119_155)">
<path d="M19.5 21C19.35 21 19.2 20.925 19.05 20.85L15.525 18.075H1.50001C1.05001 18.075 0.75 17.775 0.75 17.325V0.74999C0.75 0.300029 1.05001 0 1.50001 0H19.5C19.95 0 20.25 0.300009 20.25 0.74999V20.25C20.25 20.55 20.1 20.775 19.8 20.925C19.725 21 19.575 21 19.5 21L19.5 21ZM2.25 16.575H15.75C15.9 16.575 16.05 16.65 16.2 16.725L18.75 18.75V1.5H2.25V16.575Z" fill="#FF8A14"/>
<path d="M15.4496 5.17481H5.09962C4.64962 5.17481 4.34961 4.8748 4.34961 4.42479C4.34961 3.97479 4.64962 3.6748 5.09962 3.6748H15.4496C15.8996 3.6748 16.1996 3.97481 16.1996 4.42479C16.1996 4.87478 15.8996 5.17481 15.4496 5.17481ZM15.4496 9.59979H5.09962C4.64962 9.59979 4.34961 9.2998 4.34961 8.8498C4.34961 8.3998 4.64962 8.09979 5.09962 8.09979H15.4496C15.8996 8.09979 16.1996 8.3998 16.1996 8.8498C16.1996 9.2998 15.8996 9.59979 15.4496 9.59979ZM12.2996 13.9498H5.09962C4.64962 13.9498 4.34961 13.6498 4.34961 13.1998C4.34961 12.7498 4.64962 12.4498 5.09962 12.4498H12.2996C12.7496 12.4498 13.0496 12.7498 13.0496 13.1998C13.0496 13.6498 12.7496 13.9498 12.2996 13.9498H12.2996Z" fill="#FF8A14"/>
</g>
<defs>
<clipPath id="clip0_119_155">
<rect width="21" height="21" fill="white"/>
</clipPath>
</defs>
</svg>
