<svg width="21" height="21" viewBox="0 0 21 21" fill="none" xmlns="http://www.w3.org/2000/svg">
<path d="M19.9483 8.03946C19.8162 7.39055 19.6197 6.75644 19.3617 6.14654C19.1144 5.54584 18.8073 4.97156 18.445 4.43237C18.38 4.32737 18.2944 4.23658 18.1934 4.16546C18.0924 4.09435 17.9781 4.04438 17.8574 4.01854C17.7366 3.99271 17.6118 3.99154 17.4906 4.01512C17.3694 4.0387 17.2541 4.08654 17.1519 4.15576C17.0496 4.22498 16.9623 4.31416 16.8954 4.41794C16.8284 4.52172 16.7831 4.63796 16.7622 4.75968C16.7413 4.88141 16.7452 5.0061 16.7737 5.12628C16.8021 5.24646 16.8546 5.35964 16.9279 5.45904C17.223 5.89319 17.4776 6.35344 17.6887 6.83404C17.8916 7.33429 18.0451 7.85314 18.1471 8.38321C18.4874 10.0164 18.3277 11.7142 17.6887 13.2553C17.4799 13.7457 17.2252 14.2153 16.9279 14.6578C16.3345 15.5386 15.5766 16.2964 14.6958 16.8899C13.3348 17.8116 11.7288 18.3043 10.085 18.3043C8.44122 18.3043 6.83517 17.8116 5.47416 16.8899C4.1453 16.0004 3.10132 14.7463 2.46749 13.2782C2.26467 12.778 2.11117 12.2591 2.00916 11.729C1.6698 10.0973 1.82951 8.40123 2.46749 6.86154C2.67633 6.37111 2.93107 5.90152 3.22832 5.45904C3.82175 4.57828 4.57965 3.82038 5.46041 3.22696C6.82142 2.3052 8.42747 1.81252 10.0712 1.81252C11.715 1.81252 13.3211 2.3052 14.6821 3.22696C14.7815 3.30027 14.8947 3.35274 15.0148 3.38121C15.135 3.40969 15.2597 3.41359 15.3814 3.39267C15.5032 3.37175 15.6194 3.32645 15.7232 3.25949C15.827 3.19253 15.9161 3.10529 15.9854 3.003C16.0546 2.90072 16.1024 2.7855 16.126 2.66426C16.1496 2.54303 16.1484 2.41827 16.1226 2.2975C16.0967 2.17672 16.0468 2.06242 15.9756 1.96144C15.9045 1.86046 15.8137 1.77489 15.7087 1.70987C15.169 1.34852 14.5948 1.04147 13.9946 0.793208C13.3847 0.535208 12.7506 0.338679 12.1017 0.206541C10.7621 -0.0688471 9.38043 -0.0688471 8.04082 0.206541C7.39192 0.338679 6.75781 0.535208 6.14791 0.793208C5.54768 1.04147 4.97349 1.34852 4.43374 1.70987C3.35765 2.43147 2.43284 3.35628 1.71124 4.43237C1.34894 4.97156 1.04184 5.54584 0.794573 6.14654C0.270181 7.38808 0 8.72214 0 10.0699C0 11.4176 0.270181 12.7517 0.794573 13.9932C1.04184 14.5939 1.34894 15.1682 1.71124 15.7074C2.43284 16.7835 3.35765 17.7083 4.43374 18.4299C4.97349 18.7912 5.54768 19.0983 6.14791 19.3465C7.38944 19.8709 8.7235 20.1411 10.0712 20.1411C11.419 20.1411 12.753 19.8709 13.9946 19.3465C14.5948 19.0983 15.169 18.7912 15.7087 18.4299C16.7848 17.7083 17.7096 16.7835 18.4312 15.7074C18.7935 15.1682 19.1006 14.5939 19.3479 13.9932C20.1422 12.1123 20.3468 10.0346 19.9346 8.03487L19.9483 8.03946Z" fill="#FF8A14"/>
<path d="M10.0712 10.0699V4.56987C10.0712 4.32678 9.97461 4.09366 9.8027 3.92178C9.6308 3.74991 9.39766 3.65335 9.15457 3.65335C8.91148 3.65335 8.67835 3.74991 8.50644 3.92178C8.33454 4.09366 8.23794 4.32678 8.23791 4.56987V10.9865C8.23791 11.2297 8.33448 11.4628 8.50639 11.6347C8.6783 11.8066 8.91146 11.9032 9.15457 11.9032H15.5712C15.8143 11.9032 16.0475 11.8066 16.2193 11.6347C16.3912 11.4628 16.4878 11.2296 16.4878 10.9865C16.4878 10.7435 16.3912 10.5103 16.2193 10.3384C16.0475 10.1665 15.8143 10.0699 15.5712 10.0699H10.0712Z" fill="#FF8A14"/>
</svg>
